<?xml version="1.0" encoding="utf-8"?>
<!-- Generator: Adobe Illustrator 27.2.0, SVG Export Plug-In . SVG Version: 6.00 Build 0)  -->
<svg version="1.1" id="Capa_1" xmlns="http://www.w3.org/2000/svg" xmlns:xlink="http://www.w3.org/1999/xlink" x="0px" y="0px"
	 viewBox="0 0 500 375" style="enable-background:new 0 0 500 375;" xml:space="preserve">
<style type="text/css">
	.st0{fill:#FFFFFF;stroke:#000000;stroke-miterlimit:10;}
	.st1{fill:none;stroke:#000000;stroke-width:2;stroke-miterlimit:10;}
	.st2{fill:#FFFFFF;stroke:#000000;stroke-width:2;stroke-miterlimit:10;}
	.st3{fill:#CCCCCC;}
	.st4{fill:#0073FF;}
	.st5{stroke:#000000;stroke-miterlimit:10;}
	.st6{fill:none;stroke:#000000;stroke-miterlimit:10;}
</style>
<g>
	<path class="st0" d="M92.5,323.7c-8.7,0-15.8-7.3-15.8-16.3V81.8c0-9,7.1-16.3,15.8-16.3h337.8c8.7,0,15.8,7.3,15.8,16.3v225.7
		c0,9-7.1,16.3-15.8,16.3H92.5z"/>
	<path class="st0" d="M430.3,65.8c8.5,0,15.5,7.2,15.5,16v225.7c0,8.8-6.9,16-15.5,16H92.5c-8.5,0-15.5-7.2-15.5-16V81.8
		c0-8.8,6.9-16,15.5-16L430.3,65.8 M430.3,65.1H92.5c-8.9,0-16.1,7.4-16.1,16.7v225.7c0,9.2,7.2,16.7,16.1,16.7h337.8
		c8.9,0,16.1-7.4,16.1-16.7V81.8C446.5,72.5,439.3,65.1,430.3,65.1L430.3,65.1z"/>
</g>
<line class="st1" x1="80.7" y1="269.9" x2="442.1" y2="269.9"/>
<path class="st2" d="M138,323.5h-31V266c0-8.6,6.9-15.5,15.5-15.5l0,0c8.6,0,15.5,6.9,15.5,15.5V323.5z"/>
<path class="st2" d="M211.3,323.5h-30.9V266c0-8.6,7-15.5,15.5-15.5l0,0c8.5,0,15.5,7,15.5,15.5v57.5H211.3z"/>
<path class="st2" d="M326.1,323.5h-31V266c0-8.6,6.9-15.5,15.5-15.5l0,0c8.6,0,15.5,6.9,15.5,15.5V323.5z"/>
<path class="st2" d="M393.5,323.5h-31V266c0-8.6,6.9-15.5,15.5-15.5l0,0c8.6,0,15.5,6.9,15.5,15.5V323.5z"/>
<circle class="st2" cx="122.5" cy="265.5" r="10"/>
<circle class="st2" cx="195.9" cy="265.5" r="10"/>
<circle class="st2" cx="310.1" cy="265.5" r="10"/>
<circle class="st2" cx="378" cy="265.5" r="10"/>
<g>
	<path class="st3" d="M136.6,203.5h-32.2c-5.2,0-9.4-4.2-9.4-9.4v-32.2c0-5.2,4.2-9.4,9.4-9.4h32.2c5.2,0,9.4,4.2,9.4,9.4v32.2
		C146,199.3,141.8,203.5,136.6,203.5z"/>
</g>
<g>
	<path class="st3" d="M418.8,203.1h-30c-5.8,0-10.5-4.7-10.5-10.5v-30c0-5.8,4.7-10.5,10.5-10.5h30c5.8,0,10.5,4.7,10.5,10.5v30
		C429.3,198.4,424.6,203.1,418.8,203.1z"/>
</g>
<g>
	<circle cx="120.5" cy="177.6" r="10.1"/>
	<path d="M120.5,167.9c5.4,0,9.8,4.4,9.8,9.8s-4.4,9.8-9.8,9.8s-9.8-4.4-9.8-9.8S115.1,167.9,120.5,167.9 M120.5,167.1
		c-5.8,0-10.5,4.7-10.5,10.5s4.7,10.5,10.5,10.5s10.5-4.7,10.5-10.5S126.3,167.1,120.5,167.1L120.5,167.1z"/>
</g>
<g>
	<circle cx="403.8" cy="176.6" r="10.1"/>
	<path d="M403.8,166.9c5.4,0,9.8,4.4,9.8,9.8s-4.4,9.8-9.8,9.8s-9.8-4.4-9.8-9.8S398.4,166.9,403.8,166.9 M403.8,166.1
		c-5.8,0-10.5,4.7-10.5,10.5s4.7,10.5,10.5,10.5s10.5-4.7,10.5-10.5S409.6,166.1,403.8,166.1L403.8,166.1z"/>
</g>
<g>
	<path d="M241.6,107c-7.5,0-13.6-6.5-13.6-14.4s6.1-14.5,13.6-14.5h52.9c7.5,0,13.6,6.5,13.6,14.5s-6.1,14.4-13.6,14.4H241.6z"/>
	<path class="st4" d="M294.6,80.7c6.2,0,11.2,5.4,11.2,11.9c0,6.5-5.1,11.9-11.2,11.9h-52.9c-6.2,0-11.2-5.4-11.2-11.9
		s5.1-11.9,11.2-11.9H294.6 M294.6,75.6h-52.9c-8.8,0-16,7.6-16,17l0,0c0,9.3,7.2,17,16,17h52.9c8.8,0,16-7.7,16-17l0,0
		C310.6,83.2,303.4,75.6,294.6,75.6L294.6,75.6z"/>
</g>
<g>
	<circle cx="248.1" cy="92.6" r="3"/>
	<path class="st4" d="M248.1,92.6L248.1,92.6L248.1,92.6 M248.1,86.6c-3.3,0-6,2.7-6,6s2.7,6,6,6s6-2.7,6-6S251.4,86.6,248.1,86.6
		L248.1,86.6z"/>
</g>
<g>
	<circle cx="288.8" cy="92.6" r="3"/>
	<path class="st4" d="M288.8,92.6L288.8,92.6L288.8,92.6 M288.8,86.6c-3.3,0-6,2.7-6,6s2.7,6,6,6s6-2.7,6-6S292.1,86.6,288.8,86.6
		L288.8,86.6z"/>
</g>
<path class="st4" d="M179.3,104.9V66.2L72.4,156.1V83.4c0-10.6,9.3-19.3,20.8-19.3h114.2L179.3,104.9z"/>
<g>
	<polygon class="st0" points="388.1,108.1 425.7,108.1 388.1,139.7 	"/>
	<path class="st5" d="M425.3,108.2l-18.5,15.6l-18.6,15.8v-31.2h37.1 M426,108h-38v32l19-16L426,108L426,108z"/>
</g>
<g>
	<polygon class="st0" points="86.8,242.9 124.4,211.3 124.4,242.9 	"/>
	<path class="st5" d="M124.3,211.5v31.2H87.2l18.5-15.6L124.3,211.5 M124.5,211l-19,16l-19,16h38V211L124.5,211z"/>
</g>
<rect x="201.2" y="135.3" transform="matrix(0.866 -0.5 0.5 0.866 -44.7587 123.1356)" class="st6" width="12.4" height="19.5"/>
<rect x="201.2" y="170.1" transform="matrix(-0.866 -0.5 0.5 -0.866 297.0938 439.2475)" class="st6" width="12.4" height="19.5"/>
<rect x="201.2" y="206.8" transform="matrix(0.866 -0.5 0.5 0.866 -80.4687 132.7041)" class="st6" width="12.4" height="19.5"/>
<rect x="240.1" y="136.6" transform="matrix(-0.866 -0.5 0.5 -0.866 386.3437 396.2065)" class="st6" width="12.4" height="19.5"/>
<rect x="241.9" y="170.1" transform="matrix(0.866 -0.5 0.5 0.866 -56.6716 148.1401)" class="st6" width="12.4" height="19.5"/>
<rect x="241.9" y="206.8" transform="matrix(-0.866 -0.5 0.5 -0.866 354.7019 528.0593)" class="st6" width="12.4" height="19.5"/>
<rect x="279.6" y="136.6" transform="matrix(0.866 -0.5 0.5 0.866 -34.8816 162.5063)" class="st6" width="12.4" height="19.5"/>
<rect x="276.6" y="170.1" transform="matrix(-0.866 -0.5 0.5 -0.866 437.8017 476.95)" class="st6" width="12.4" height="19.5"/>
<rect x="279.6" y="206.8" transform="matrix(0.866 -0.5 0.5 0.866 -69.9644 171.9067)" class="st6" width="12.4" height="19.5"/>
<rect x="315.5" y="136.6" transform="matrix(-0.866 -0.5 0.5 -0.866 527.0908 433.9196)" class="st6" width="12.4" height="19.5"/>
<rect x="315.5" y="170.1" transform="matrix(0.866 -0.5 0.5 0.866 -46.8135 184.9312)" class="st6" width="12.4" height="19.5"/>
<rect x="315.5" y="206.8" transform="matrix(-0.866 -0.5 0.5 -0.866 492.008 564.8503)" class="st6" width="12.4" height="19.5"/>
</svg>
