<svg xmlns="http://www.w3.org/2000/svg" viewBox="0 0 1440 320">
  <path fill="#5000ca" fill-opacity="1" d="M0,288L16,261.3C32,235,64,181,96,149.3C128,117,160,107,192,128C224,149,256,203,288,234.7C320,267,352,277,384,282.7C416,288,448,288,480,256C512,224,544,160,576,138.7C608,117,640,139,672,138.7C704,139,736,117,768,144C800,171,832,245,864,250.7C896,256,928,192,960,160C992,128,1024,128,1056,149.3C1088,171,1120,213,1152,213.3C1184,213,1216,171,1248,138.7C1280,107,1312,85,1344,74.7C1376,64,1408,64,1424,64L1440,64L1440,320L1424,320C1408,320,1376,320,1344,320C1312,320,1280,320,1248,320C1216,320,1184,320,1152,320C1120,320,1088,320,1056,320C1024,320,992,320,960,320C928,320,896,320,864,320C832,320,800,320,768,320C736,320,704,320,672,320C640,320,608,320,576,320C544,320,512,320,480,320C448,320,416,320,384,320C352,320,320,320,288,320C256,320,224,320,192,320C160,320,128,320,96,320C64,320,32,320,16,320L0,320Z"></path>
</svg>